<svg xmlns="http://www.w3.org/2000/svg" xmlns:xlink="http://www.w3.org/1999/xlink" viewBox="0 0 415.48 219.37"><defs><style>.cls-1{fill:#ed1c24;}.cls-2{fill:#ee7e39;}.cls-3{fill:#eec136;}.cls-4{fill:#d4df45;}.cls-5{fill:#9ecb3b;}.cls-6{fill:#75c044;}.cls-7{fill:#6fbf5a;}.cls-8{fill:#70c59d;}.cls-9{fill:#6ecbd7;}.cls-10{fill:#4ba6dd;}.cls-11{fill:#4c67b0;}.cls-12{fill:#5556a5;}.cls-13{fill:#7a56a3;}.cls-14{fill:#a755a1;}.cls-15{fill:#cf4f9d;}.cls-16{fill:#ee3b7c;}.cls-17{fill:#ef3a3a;}.cls-18,.cls-22{fill:#656565;}.cls-19{fill:url(#linear-gradient);}.cls-20{fill:url(#linear-gradient-2);}.cls-21{isolation:isolate;opacity:0.44;fill:url(#radial-gradient);}.cls-22{font-size:21.91px;letter-spacing:0.11em;}.cls-22,.cls-23{font-family:GurmukhiMN-Bold, Gurmukhi MN;font-weight:700;}.cls-23{font-size:72.16px;fill:#fff;letter-spacing:0.03em;}</style><linearGradient id="linear-gradient" x1="49.22" y1="661.44" x2="95.44" y2="621.68" gradientTransform="matrix(0.56, 0, 0, -0.57, 98.13, 532.67)" gradientUnits="userSpaceOnUse"><stop offset="0" stop-color="#5c9fd3"/><stop offset="1" stop-color="#316a99"/></linearGradient><linearGradient id="linear-gradient-2" x1="113.31" y1="597.62" x2="96.8" y2="620.97" gradientTransform="matrix(0.56, 0, 0, -0.57, 98.13, 532.67)" gradientUnits="userSpaceOnUse"><stop offset="0" stop-color="#ffd53d"/><stop offset="1" stop-color="#fee875"/></linearGradient><radialGradient id="radial-gradient" cx="456.51" cy="714.4" r="12.31" gradientTransform="matrix(0, -0.24, -1.05, 0, 904.11, 319.27)" gradientUnits="userSpaceOnUse"><stop offset="0" stop-color="#b9b9b9" stop-opacity="0.5"/><stop offset="1" stop-color="#7f8080" stop-opacity="0"/></radialGradient></defs><g id="Layer_1" data-name="Layer 1"><path class="cls-1" d="M36.73,74.68h2.49a9.39,9.39,0,0,1,9.39,9.39v1.17A8.65,8.65,0,0,1,40,93.89H36a8.65,8.65,0,0,1-8.65-8.65V84.07A9.39,9.39,0,0,1,36.73,74.68Z"/><path class="cls-2" d="M58.2,55.24H60.7a9.39,9.39,0,0,1,9.39,9.39v40a8.65,8.65,0,0,1-8.65,8.65h-4a8.65,8.65,0,0,1-8.65-8.65v-40A9.39,9.39,0,0,1,58.2,55.24Z"/><path class="cls-3" d="M80.37,25.07h0A10.64,10.64,0,0,1,91,35.71v98a9.8,9.8,0,0,1-9.8,9.8H79.53a9.8,9.8,0,0,1-9.8-9.8v-98A10.64,10.64,0,0,1,80.37,25.07Z"/><path class="cls-4" d="M100,41.7h2.49a9.39,9.39,0,0,1,9.39,9.39v67.13a8.65,8.65,0,0,1-8.65,8.65h-4a8.65,8.65,0,0,1-8.65-8.65V51.09A9.39,9.39,0,0,1,100,41.7Z"/><path class="cls-5" d="M121.08,54.31h3.35a9,9,0,0,1,9,9V106a8.26,8.26,0,0,1-8.26,8.26h-4.76a8.26,8.26,0,0,1-8.26-8.26V63.28a9,9,0,0,1,9-9Z"/><path class="cls-6" d="M142.78,32.59h2.49A9.39,9.39,0,0,1,154.67,42v85.36A8.65,8.65,0,0,1,146,136h-4a8.65,8.65,0,0,1-8.65-8.65V42a9.39,9.39,0,0,1,9.39-9.39Z"/><path class="cls-7" d="M163.28,48.47h4.05a8.61,8.61,0,0,1,8.61,8.61v55.08A7.93,7.93,0,0,1,168,120.1H162.6a7.93,7.93,0,0,1-7.93-7.93V57.08a8.61,8.61,0,0,1,8.61-8.61Z"/><path class="cls-8" d="M185.34,23.37h2.49a9.39,9.39,0,0,1,9.39,9.39v103.8a8.65,8.65,0,0,1-8.65,8.65h-4a8.65,8.65,0,0,1-8.65-8.65V32.76a9.39,9.39,0,0,1,9.39-9.39Z"/><path class="cls-9" d="M207,6.67h1.79a9.74,9.74,0,0,1,9.74,9.74V152.93a9,9,0,0,1-9,9H206.2a9,9,0,0,1-9-9V16.41A9.74,9.74,0,0,1,207,6.67Z"/><path class="cls-10" d="M227.89,32.59h2.49A9.39,9.39,0,0,1,239.77,42v85.36a8.65,8.65,0,0,1-8.65,8.65h-4a8.65,8.65,0,0,1-8.65-8.65V42a9.39,9.39,0,0,1,9.39-9.39Z"/><path class="cls-11" d="M248.68,53.39h3.46A8.91,8.91,0,0,1,261,62.3V107a8.21,8.21,0,0,1-8.21,8.21H248a8.21,8.21,0,0,1-8.21-8.21V62.3A8.91,8.91,0,0,1,248.68,53.39Z"/><path class="cls-12" d="M270.44,38.45h2.49a9.39,9.39,0,0,1,9.39,9.39v73.64a8.65,8.65,0,0,1-8.65,8.65h-4a8.65,8.65,0,0,1-8.65-8.65V47.84a9.39,9.39,0,0,1,9.39-9.39Z"/><path class="cls-13" d="M291.72,50h2.49a9.39,9.39,0,0,1,9.39,9.39V110a8.65,8.65,0,0,1-8.65,8.65h-4a8.65,8.65,0,0,1-8.65-8.65V59.35A9.39,9.39,0,0,1,291.72,50Z"/><path class="cls-14" d="M312.59,41.7h2.49a9.39,9.39,0,0,1,9.39,9.39v67.13a8.65,8.65,0,0,1-8.65,8.65h-4a8.65,8.65,0,0,1-8.65-8.65V51.09A9.39,9.39,0,0,1,312.59,41.7Z"/><path class="cls-15" d="M334.75,25.07h0a10.64,10.64,0,0,1,10.64,10.64v98a9.8,9.8,0,0,1-9.8,9.8h-1.67a9.8,9.8,0,0,1-9.8-9.8v-98a10.64,10.64,0,0,1,10.64-10.64Z"/><path class="cls-16" d="M354.88,55.24h2.49a9.39,9.39,0,0,1,9.39,9.39v40a8.65,8.65,0,0,1-8.65,8.65h-4a8.65,8.65,0,0,1-8.65-8.65v-40a9.39,9.39,0,0,1,9.39-9.39Z"/><path class="cls-17" d="M376.25,74.68h2.49a9.39,9.39,0,0,1,9.39,9.39v1.17a8.65,8.65,0,0,1-8.65,8.65h-4a8.65,8.65,0,0,1-8.65-8.65V84.07a9.39,9.39,0,0,1,9.39-9.39Z"/><g id="g2303"><path id="path46" class="cls-18" d="M202.87,179.15q0-9.26-5.28-9.51a9.78,9.78,0,0,0-4.1.67,6,6,0,0,0-2.16,1.14v14.73a10.48,10.48,0,0,0,6,2Q202.87,187.79,202.87,179.15Zm4.34.26a13.09,13.09,0,0,1-2.22,7.81,8.17,8.17,0,0,1-6.85,3.62,12.17,12.17,0,0,1-6.81-2.07v13.39l-3.77-1.35V171.09a8.33,8.33,0,0,1,2.38-2,16.44,16.44,0,0,1,8.19-2l.06.06a7.51,7.51,0,0,1,6.79,3.61A15.33,15.33,0,0,1,207.21,179.41Z"/><path id="path48" class="cls-18" d="M230.29,188.2q0,6.31-1.26,8.74a8.9,8.9,0,0,1-4.84,3.87,18.55,18.55,0,0,1-6.26,1.25l-.62-2.38a30,30,0,0,0,4.81-.93,6.32,6.32,0,0,0,3.77-2.84c.56-1,.83-3,.83-5.95v-1a19.45,19.45,0,0,1-8.12,1.75,7.46,7.46,0,0,1-4.91-1.75,6,6,0,0,1-2.38-4.86V168.4l3.78-1.3v15.83a4.79,4.79,0,0,0,1.63,3.9,6.23,6.23,0,0,0,4.24,1.32,10.66,10.66,0,0,0,5.56-2V167.67h3.77Z"/><path id="path50" class="cls-18" d="M245,190.63c-.46,0-.87.05-1.25.05a7.44,7.44,0,0,1-5-1.53,5.26,5.26,0,0,1-1.78-4.22V170.05h-2.59v-2.38H237v-6.31l3.77-1.34v7.65H245v2.38h-4.25v14.77a3.58,3.58,0,0,0,1.14,3,5.82,5.82,0,0,0,3.11.83Z"/><path id="path52" class="cls-18" d="M267.9,190.32h-3.77V175.74a6.92,6.92,0,0,0-1-3.83,3.8,3.8,0,0,0-3.33-1.81c-1.73,0-3.89.92-6.49,2.74v17.48h-3.78V155.47l3.78-1.19v15.87a13.19,13.19,0,0,1,7.91-2.63,6.31,6.31,0,0,1,4.86,2,7.14,7.14,0,0,1,1.86,5v15.77Z"/><path id="path54" class="cls-18" d="M288,178.56a11.58,11.58,0,0,0-1.35-5.88,5.63,5.63,0,0,0-5-3q-6.21.36-6.21,8.89a14.63,14.63,0,0,0,1.3,6.54,5.24,5.24,0,0,0,5,3.29Q288,188.35,288,178.56Zm4.13,0a13.44,13.44,0,0,1-2.58,8.43,9.3,9.3,0,0,1-7.86,3.78,9.09,9.09,0,0,1-7.76-3.78,13.6,13.6,0,0,1-2.54-8.43,12.05,12.05,0,0,1,2.74-8,9.44,9.44,0,0,1,7.61-3.47,9.58,9.58,0,0,1,7.65,3.47A12,12,0,0,1,292.11,178.58Z"/><path id="path56" class="cls-18" d="M313.77,190.32H310V174.91a5.15,5.15,0,0,0-1.52-3.95,5.54,5.54,0,0,0-4.07-1.37,9.1,9.1,0,0,0-5.12,1.75v19h-3.77V170.88a17.37,17.37,0,0,1,10.55-3.78,12,12,0,0,1,2.53.26,7.28,7.28,0,0,1,3.62,1.92,5,5,0,0,1,1.56,3.72Z"/><path id="path1948" class="cls-19" d="M150.25,155.61a32.4,32.4,0,0,0-5.43.47c-4.81.85-5.68,2.62-5.68,5.9v4.34h11.37v1.44H134.87a7.11,7.11,0,0,0-7.1,5.76,21.31,21.31,0,0,0,0,11.56c.81,3.36,2.74,5.76,6,5.76h3.91v-5.19a7.23,7.23,0,0,1,7.1-7.07h11.36a5.72,5.72,0,0,0,5.68-5.77V162c0-3.08-2.6-5.39-5.68-5.9A34.94,34.94,0,0,0,150.25,155.61Zm-6.14,3.49a2.17,2.17,0,1,1-2.14,2.17A2.15,2.15,0,0,1,144.11,159.1Z"/><path id="path1950" class="cls-20" d="M163.28,167.76v5.05a7.29,7.29,0,0,1-7.1,7.2H144.82a5.8,5.8,0,0,0-5.68,5.78v10.83c0,3.08,2.68,4.89,5.68,5.77a19,19,0,0,0,11.36,0c2.86-.83,5.68-2.5,5.68-5.77v-4.34H150.51v-1.44h17c3.31,0,4.54-2.31,5.69-5.76s1.13-7,0-11.56c-.82-3.29-2.38-5.76-5.69-5.76Zm-6.39,27.41a2.17,2.17,0,1,1-2.13,2.16A2.14,2.14,0,0,1,156.89,195.17Z"/><path id="text3004" class="cls-18" d="M321.12,164.31h.66v-4.16h1.57v-.49h-3.8v.49h1.57v4.16m2.82,0h.56v-3.8l1.23,3.8h.63l1.28-3.78v3.78h.62v-4.65h-.82l-1.4,4-1.19-4h-.91v4.65"/><path id="path1894" class="cls-21" d="M165.87,209.75c0,1.63-6.82,2.95-15.24,2.95s-15.23-1.32-15.23-2.95,6.82-2.95,15.23-2.95,15.24,1.32,15.24,2.95Z"/></g><text class="cls-22" transform="translate(84.82 184.58)">for</text></g><g id="Layer_2" data-name="Layer 2"><text class="cls-23" transform="translate(59.23 107.37)">GAMuT</text></g></svg>